<svg width="1390" height="1098" version="1.1" xmlns="http://www.w3.org/2000/svg" desc="Created with imagetracer.js version 1.2.6" ><path fill="rgb(0,0,0)" stroke="rgb(0,0,0)" stroke-width="1" opacity="0" d="M 0 0 L 1390 0 L 1390 1098 L 0 1098 L 0 0 Z M 689 351 L 684 353 L 675 353 L 662 356 L 655 356 L 649 359 L 644 359 L 627 366 L 621 367 L 585 388 Q 582 387 583 390 L 578 393 Q 575 392 576 395 L 572 398 Q 569 397 570 400 L 563 404 L 562 407 Q 559 406 560 409 L 558 409 L 557 412 Q 554 411 555 414 L 552 416 Q 553 418 550 417 L 546 423 Q 547 425 544 424 L 541 429 Q 542 431 539 430 Q 540 434 536 436 Q 537 438 534 437 L 534 440 L 528 448 Q 529 450 526 449 L 525 454 L 515 471 Q 516 475 513 474 L 512 480 Q 513 483 510 482 L 510 487 L 507 492 Q 509 498 505 497 L 504 507 L 504 509 Q 501 511 502 518 L 500 520 L 500 528 L 499 529 L 499 569 L 501 570 L 529 570 L 529 562 L 528 561 L 528 548 L 529 547 L 529 535 L 531 527 L 531 521 L 539 493 Q 552 460 574 437 Q 601 407 642 392 L 658 388 L 661 386 L 667 386 L 673 384 L 687 383 L 688 382 L 746 382 Q 762 371 781 362 L 796 357 L 797 353 L 796 351 L 769 351 L 767 351 L 762 352 L 759 351 Q 754 350 753 352 Q 748 353 747 351 L 745 352 L 689 351 Z M 868 351 L 862 353 L 841 354 L 839 354 Q 835 357 827 356 L 820 359 L 814 359 L 812 361 L 801 364 L 799 364 L 797 366 L 791 367 Q 787 371 780 372 L 757 385 L 739 398 L 722 414 L 720 414 L 705 433 Q 698 437 685 435 L 682 437 L 673 438 L 670 440 L 666 440 L 660 443 L 657 443 L 635 456 Q 632 455 633 458 L 615 472 L 599 496 Q 597 500 596 497 Q 590 496 589 498 L 547 498 L 546 504 L 544 506 L 544 510 L 542 512 L 542 518 L 539 523 L 541 526 L 542 527 L 618 527 L 625 510 L 638 492 Q 654 474 680 467 L 683 468 L 676 481 L 674 488 L 674 490 L 668 505 L 668 510 L 665 519 L 664 535 L 663 536 L 663 572 L 665 581 L 665 588 L 668 598 L 668 603 L 671 609 L 673 619 L 676 624 L 676 627 L 680 630 L 687 632 L 711 633 L 710 626 L 706 620 L 705 614 L 702 608 L 702 606 L 700 604 Q 701 598 698 597 L 697 587 L 695 584 L 694 573 L 693 572 L 694 570 Q 691 564 693 554 L 692 553 L 693 552 L 693 540 L 694 539 L 693 535 L 695 524 L 697 521 Q 696 512 699 508 L 699 506 L 702 502 L 703 495 L 714 472 L 729 451 Q 728 448 731 449 L 732 447 Q 731 444 734 445 L 734 444 L 746 432 Q 748 433 747 431 L 754 425 Q 756 426 755 423 L 771 412 Q 774 413 773 410 L 806 394 L 829 388 L 831 388 L 834 386 Q 841 387 845 384 L 873 382 L 873 425 L 872 426 L 872 434 L 758 434 L 756 435 L 735 457 Q 732 459 733 464 L 897 464 L 899 462 L 900 462 L 900 353 Q 897 354 896 351 L 868 351 Z M 500 580 Q 499 587 502 590 L 502 597 L 505 603 L 505 609 L 507 611 L 508 616 Q 507 620 510 619 Q 509 625 513 628 Q 511 633 515 632 L 515 636 L 523 650 Q 522 653 525 652 Q 525 657 529 661 Q 528 663 531 662 L 531 665 L 533 665 L 538 673 Q 541 672 539 676 L 541 676 L 544 681 Q 543 683 546 682 L 547 685 Q 546 687 549 686 L 555 694 Q 554 696 557 695 L 563 703 L 567 704 L 568 707 L 588 721 L 616 737 L 646 748 L 664 751 L 669 753 L 671 753 L 900 753 L 900 645 L 895 642 L 715 642 L 714 643 L 709 642 L 691 642 L 687 640 L 676 639 L 659 631 L 639 616 Q 640 613 638 614 L 625 598 L 619 583 L 617 580 L 500 580 Z " /><path fill="rgb(0,0,0)" stroke="rgb(0,0,0)" stroke-width="1" opacity="0" d="M 538 609 L 548.5 610 L 549.5 609 L 597.5 609 L 605 622 Q 607.7 620.9 607 623.5 L 613 632 Q 615.7 630.9 615 633.5 L 630.5 648 L 651.5 661 L 672.5 669 Q 681.1 668.9 686.5 672 L 702.5 672 L 706 675.5 L 726.5 698 L 748.5 716 L 779.5 716 L 781.5 716 L 801.5 716 L 803 714.5 Q 803.8 710.8 801.5 710 L 787 705 Q 788.3 702 784.5 703 L 775.5 697 L 773 697 Q 774.3 694 770.5 695 L 760 687.5 Q 760.8 685.3 758.5 686 L 755 684 Q 756.1 681.3 753.5 682 L 743 672.5 L 760.5 672 L 762.5 672 Q 768 670.5 769.5 673 L 792.5 673 Q 794 670.5 799.5 672 L 800.5 673 L 867.5 673 L 873 672 L 873 713.5 L 872 715.5 L 873 717.5 L 872 718.5 L 872 725 L 699.5 725 L 698.5 724 L 672.5 723 Q 669.2 720.3 662.5 721 L 659.5 719 L 657.5 719 L 641.5 715 L 613.5 702 Q 587.2 686.3 568 663.5 Q 548.1 640.7 538 609 Z " /><path fill="rgb(251,252,251)" stroke="rgb(251,252,251)" stroke-width="1" opacity="0.984313725490196" d="M 856.5 355 L 859 355.5 L 856.5 356 L 856.5 355 Z " /><path fill="rgb(251,252,251)" stroke="rgb(251,252,251)" stroke-width="1" opacity="0.984313725490196" d="M 897.5 355 L 898.5 357 L 897.5 355 Z " /><path fill="rgb(251,252,251)" stroke="rgb(251,252,251)" stroke-width="1" opacity="0.984313725490196" d="M 899.5 360 L 900 363.5 L 899 363.5 L 899.5 360 Z " /><path fill="rgb(251,252,251)" stroke="rgb(251,252,251)" stroke-width="1" opacity="0.984313725490196" d="M 877.5 368 Q 879.8 367.3 879 369.5 L 877.5 368 Z " /><path fill="rgb(251,252,251)" stroke="rgb(251,252,251)" stroke-width="1" opacity="0.984313725490196" d="M 899.5 373 L 900 429.5 L 899 429.5 L 899.5 373 Z " /><path fill="rgb(251,252,251)" stroke="rgb(251,252,251)" stroke-width="1" opacity="0.984313725490196" d="M 685.5 379 L 689 379.5 L 685.5 380 L 685.5 379 Z " /><path fill="rgb(251,252,251)" stroke="rgb(251,252,251)" stroke-width="1" opacity="0.984313725490196" d="M 862.5 379 L 865 379.5 L 862.5 380 L 862.5 379 Z " /><path fill="rgb(251,252,251)" stroke="rgb(251,252,251)" stroke-width="1" opacity="0.984313725490196" d="M 875.5 379 L 876 382.5 L 875 382.5 L 875.5 379 Z " /><path fill="rgb(251,252,251)" stroke="rgb(251,252,251)" stroke-width="1" opacity="0.984313725490196" d="M 598.5 382 L 597.5 384 L 598.5 382 Z " /><path fill="rgb(251,252,251)" stroke="rgb(251,252,251)" stroke-width="1" opacity="0.984313725490196" d="M 875.5 384 L 876 433.5 L 875 433.5 L 875.5 384 Z " /><path fill="rgb(251,252,251)" stroke="rgb(251,252,251)" stroke-width="1" opacity="0.984313725490196" d="M 583.5 392 L 582.5 394 L 583.5 392 Z " /><path fill="rgb(251,252,251)" stroke="rgb(251,252,251)" stroke-width="1" opacity="0.984313725490196" d="M 580.5 394 L 579.5 396 L 580.5 394 Z " /><path fill="rgb(251,252,251)" stroke="rgb(251,252,251)" stroke-width="1" opacity="0.984313725490196" d="M 773.5 406 L 772.5 408 L 773.5 406 Z " /><path fill="rgb(251,252,251)" stroke="rgb(251,252,251)" stroke-width="1" opacity="0.984313725490196" d="M 731.5 408 L 730.5 410 L 731.5 408 Z " /><path fill="rgb(251,252,251)" stroke="rgb(251,252,251)" stroke-width="1" opacity="0.984313725490196" d="M 760.5 415 L 759.5 417 L 760.5 415 Z " /><path fill="rgb(251,252,251)" stroke="rgb(251,252,251)" stroke-width="1" opacity="0.984313725490196" d="M 752.5 421 L 751.5 423 L 752.5 421 Z " /><path fill="rgb(251,252,251)" stroke="rgb(251,252,251)" stroke-width="1" opacity="0.984313725490196" d="M 545.5 428 L 543.5 431 L 545.5 428 Z " /><path fill="rgb(251,252,251)" stroke="rgb(251,252,251)" stroke-width="1" opacity="0.984313725490196" d="M 741.5 431 L 739.5 434 L 741.5 431 Z " /><path fill="rgb(251,252,251)" stroke="rgb(251,252,251)" stroke-width="1" opacity="0.984313725490196" d="M 541.5 433 L 540.5 435 L 541.5 433 Z " /><path fill="rgb(251,252,251)" stroke="rgb(251,252,251)" stroke-width="1" opacity="0.984313725490196" d="M 736.5 436 L 735.5 438 L 736.5 436 Z " /><path fill="rgb(251,252,251)" stroke="rgb(251,252,251)" stroke-width="1" opacity="0.984313725490196" d="M 875.5 436 L 875 437.5 L 874.5 439 L 874 437.5 L 875.5 436 Z " /><path fill="rgb(251,252,251)" stroke="rgb(251,252,251)" stroke-width="1" opacity="0.984313725490196" d="M 700.5 437 L 704 437.5 L 700.5 438 L 700.5 437 Z " /><path fill="rgb(251,252,251)" stroke="rgb(251,252,251)" stroke-width="1" opacity="0.984313725490196" d="M 899.5 437 L 900 448.5 L 899 448.5 L 899.5 437 Z " /><path fill="rgb(251,252,251)" stroke="rgb(251,252,251)" stroke-width="1" opacity="0.984313725490196" d="M 536.5 440 L 535.5 442 L 536.5 440 Z " /><path fill="rgb(251,252,251)" stroke="rgb(251,252,251)" stroke-width="1" opacity="0.984313725490196" d="M 884 440 L 886 440.5 L 884 441.5 L 884 440 Z " /><path fill="rgb(251,252,251)" stroke="rgb(251,252,251)" stroke-width="1" opacity="0.984313725490196" d="M 880.5 442 L 881 444.5 L 880 444.5 L 880.5 442 Z " /><path fill="rgb(251,252,251)" stroke="rgb(251,252,251)" stroke-width="1" opacity="0.984313725490196" d="M 878.5 443 L 879 445.5 L 878 445.5 L 878.5 443 Z " /><path fill="rgb(251,252,251)" stroke="rgb(251,252,251)" stroke-width="1" opacity="0.984313725490196" d="M 881.5 447 L 882.5 449 L 880 448.5 L 881.5 447 Z " /><path fill="rgb(251,252,251)" stroke="rgb(251,252,251)" stroke-width="1" opacity="0.984313725490196" d="M 746.5 448 L 745.5 450 L 746.5 448 Z " /><path fill="rgb(251,252,251)" stroke="rgb(251,252,251)" stroke-width="1" opacity="0.984313725490196" d="M 899.5 453 L 900 455.5 L 899 455.5 L 899.5 453 Z " /><path fill="rgb(251,252,251)" stroke="rgb(251,252,251)" stroke-width="1" opacity="0.984313725490196" d="M 523.5 462 L 522.5 464 L 523.5 462 Z " /><path fill="rgb(251,252,251)" stroke="rgb(251,252,251)" stroke-width="1" opacity="0.984313725490196" d="M 607.5 487 L 606.5 489 L 607.5 487 Z " /><path fill="rgb(251,252,251)" stroke="rgb(251,252,251)" stroke-width="1" opacity="0.984313725490196" d="M 559.5 500 L 572 500.5 L 559.5 501 L 559.5 500 Z " /><path fill="rgb(251,252,251)" stroke="rgb(251,252,251)" stroke-width="1" opacity="0.984313725490196" d="M 582.5 500 L 587 500.5 L 582.5 501 L 582.5 500 Z " /><path fill="rgb(251,252,251)" stroke="rgb(251,252,251)" stroke-width="1" opacity="0.984313725490196" d="M 526.5 527 L 527 532.5 L 526 532.5 L 526.5 527 Z " /><path fill="rgb(251,252,251)" stroke="rgb(251,252,251)" stroke-width="1" opacity="0.984313725490196" d="M 501.5 547 L 502 561.5 L 501 561.5 L 501.5 547 Z " /><path fill="rgb(251,252,251)" stroke="rgb(251,252,251)" stroke-width="1" opacity="0.984313725490196" d="M 689.5 550 L 690 555.5 L 689 555.5 L 689.5 550 Z " /><path fill="rgb(251,252,251)" stroke="rgb(251,252,251)" stroke-width="1" opacity="0.984313725490196" d="M 678.5 558 Q 680.8 557.3 680 559.5 L 679 562 L 676 560.5 L 678.5 558 Z " /><path fill="rgb(251,252,251)" stroke="rgb(251,252,251)" stroke-width="1" opacity="0.984313725490196" d="M 503.5 567 L 514 567.5 L 503.5 568 L 503.5 567 Z " /><path fill="rgb(251,252,251)" stroke="rgb(251,252,251)" stroke-width="1" opacity="0.984313725490196" d="M 515.5 567 L 522 567.5 L 515.5 568 L 515.5 567 Z " /><path fill="rgb(251,252,251)" stroke="rgb(251,252,251)" stroke-width="1" opacity="0.984313725490196" d="M 532.5 592 L 533 594.5 L 531.5 594 L 528 595.5 L 530 599 L 534 597.5 L 532 596.5 L 535 596 L 532.5 601 L 530 601.5 L 531 603.5 L 525 607.5 L 525.5 609 L 523 609 L 523 605 L 521.5 605 L 522 603.5 L 522 599.5 L 519 595.5 L 520.5 594 Q 528.5 595 532.5 592 Z M 530 602 L 528 604 L 530 604 L 530 602 Z " /><path fill="rgb(251,252,251)" stroke="rgb(251,252,251)" stroke-width="1" opacity="0.984313725490196" d="M 506.5 600 L 507.5 602 L 506.5 600 Z " /><path fill="rgb(251,252,251)" stroke="rgb(251,252,251)" stroke-width="1" opacity="0.984313725490196" d="M 628.5 607 L 629.5 609 L 628.5 607 Z " /><path fill="rgb(251,252,251)" stroke="rgb(251,252,251)" stroke-width="1" opacity="0.984313725490196" d="M 608.5 620 L 609.5 622 L 608.5 620 Z " /><path fill="rgb(251,252,251)" stroke="rgb(251,252,251)" stroke-width="1" opacity="0.984313725490196" d="M 702.5 645 L 766 645.5 L 702.5 646 L 702.5 645 Z " /><path fill="rgb(251,252,251)" stroke="rgb(251,252,251)" stroke-width="1" opacity="0.984313725490196" d="M 769.5 645 L 775 645.5 L 769.5 646 L 769.5 645 Z " /><path fill="rgb(251,252,251)" stroke="rgb(251,252,251)" stroke-width="1" opacity="0.984313725490196" d="M 838.5 645 L 872 645.5 L 838.5 646 L 838.5 645 Z " /><path fill="rgb(251,252,251)" stroke="rgb(251,252,251)" stroke-width="1" opacity="0.984313725490196" d="M 887.5 645 L 895 645.5 L 887.5 646 L 887.5 645 Z " /><path fill="rgb(251,252,251)" stroke="rgb(251,252,251)" stroke-width="1" opacity="0.984313725490196" d="M 899.5 650 L 900 654.5 L 899 654.5 L 899.5 650 Z " /><path fill="rgb(251,252,251)" stroke="rgb(251,252,251)" stroke-width="1" opacity="0.984313725490196" d="M 721 656 L 723 656.5 L 722.5 658 L 730.5 658 L 732 659.5 Q 728.8 660.9 730 666 L 727.5 665 L 726 669 L 722 669 L 722 667.5 Q 725.5 666 723 664.5 L 724 662.5 L 721 662 Q 722 665.8 719.5 667 L 717 660 L 721 658.5 L 721 656 Z " /><path fill="rgb(251,252,251)" stroke="rgb(251,252,251)" stroke-width="1" opacity="0.984313725490196" d="M 875.5 656 L 876 658 Q 881.2 656.3 880 660 L 874 660 L 874 657.5 L 875.5 656 Z " /><path fill="rgb(251,252,251)" stroke="rgb(251,252,251)" stroke-width="1" opacity="0.984313725490196" d="M 530.5 657 L 531.5 659 L 530.5 657 Z " /><path fill="rgb(251,252,251)" stroke="rgb(251,252,251)" stroke-width="1" opacity="0.984313725490196" d="M 883.5 657 L 889 660 L 888 664.5 L 891 666 L 890 670.5 Q 892.3 671.8 889.5 673 Q 885.8 674.3 887 670.5 L 887 668.5 Q 888.8 663.3 883.5 665 L 885 662.5 Q 886 658.8 883 660 L 882.5 662 L 882 659.5 L 883.5 657 Z " /><path fill="rgb(251,252,251)" stroke="rgb(251,252,251)" stroke-width="1" opacity="0.984313725490196" d="M 899.5 657 L 900 700.5 L 899 700.5 L 899.5 657 Z " /><path fill="rgb(251,252,251)" stroke="rgb(251,252,251)" stroke-width="1" opacity="0.984313725490196" d="M 658.5 658 L 657.5 660 L 658.5 658 Z " /><path fill="rgb(251,252,251)" stroke="rgb(251,252,251)" stroke-width="1" opacity="0.984313725490196" d="M 711.5 658 L 712 660.5 L 711 660.5 L 711.5 658 Z " /><path fill="rgb(251,252,251)" stroke="rgb(251,252,251)" stroke-width="1" opacity="0.984313725490196" d="M 714 658 Q 717.3 656.9 716 661 Q 712.7 662.1 714 658 Z " /><path fill="rgb(251,252,251)" stroke="rgb(251,252,251)" stroke-width="1" opacity="0.984313725490196" d="M 734.5 658 L 735 660 L 733 659.5 L 734.5 658 Z " /><path fill="rgb(251,252,251)" stroke="rgb(251,252,251)" stroke-width="1" opacity="0.984313725490196" d="M 532.5 660 L 533.5 662 L 532.5 660 Z " /><path fill="rgb(251,252,251)" stroke="rgb(251,252,251)" stroke-width="1" opacity="0.984313725490196" d="M 563.5 662 L 565.5 665 L 563.5 662 Z " /><path fill="rgb(251,252,251)" stroke="rgb(251,252,251)" stroke-width="1" opacity="0.984313725490196" d="M 669.5 662 L 671 664.5 L 669.5 664 L 668 663.5 L 669.5 662 Z " /><path fill="rgb(251,252,251)" stroke="rgb(251,252,251)" stroke-width="1" opacity="0.984313725490196" d="M 535.5 664 L 536.5 666 L 535.5 664 Z " /><path fill="rgb(251,252,251)" stroke="rgb(251,252,251)" stroke-width="1" opacity="0.984313725490196" d="M 727 668 Q 730.3 666.9 729 671 Q 725.7 672.1 727 668 Z " /><path fill="rgb(251,252,251)" stroke="rgb(251,252,251)" stroke-width="1" opacity="0.984313725490196" d="M 694.5 669 L 702 669.5 L 694.5 670 L 694.5 669 Z " /><path fill="rgb(251,252,251)" stroke="rgb(251,252,251)" stroke-width="1" opacity="0.984313725490196" d="M 740.5 669 L 745 669.5 L 740.5 670 L 740.5 669 Z " /><path fill="rgb(251,252,251)" stroke="rgb(251,252,251)" stroke-width="1" opacity="0.984313725490196" d="M 750.5 669 L 799 669.5 L 750.5 670 L 750.5 669 Z " /><path fill="rgb(251,252,251)" stroke="rgb(251,252,251)" stroke-width="1" opacity="0.984313725490196" d="M 800.5 669 L 874 669.5 L 800.5 670 L 800.5 669 Z " /><path fill="rgb(251,252,251)" stroke="rgb(251,252,251)" stroke-width="1" opacity="0.984313725490196" d="M 540.5 671 L 541.5 673 L 540.5 671 Z " /><path fill="rgb(251,252,251)" stroke="rgb(251,252,251)" stroke-width="1" opacity="0.984313725490196" d="M 543.5 675 L 544.5 677 L 543.5 675 Z " /><path fill="rgb(251,252,251)" stroke="rgb(251,252,251)" stroke-width="1" opacity="0.984313725490196" d="M 888.5 678 L 889 680.5 L 888 680.5 L 888.5 678 Z " /><path fill="rgb(251,252,251)" stroke="rgb(251,252,251)" stroke-width="1" opacity="0.984313725490196" d="M 747.5 680 L 748.5 682 L 747.5 680 Z " /><path fill="rgb(251,252,251)" stroke="rgb(251,252,251)" stroke-width="1" opacity="0.984313725490196" d="M 548.5 681 L 549.5 683 L 548.5 681 Z " /><path fill="rgb(251,252,251)" stroke="rgb(251,252,251)" stroke-width="1" opacity="0.984313725490196" d="M 875.5 685 L 876 710.5 L 875 710.5 L 875.5 685 Z " /><path fill="rgb(251,252,251)" stroke="rgb(251,252,251)" stroke-width="1" opacity="0.984313725490196" d="M 552.5 686 L 555.5 690 L 552.5 686 Z " /><path fill="rgb(251,252,251)" stroke="rgb(251,252,251)" stroke-width="1" opacity="0.984313725490196" d="M 754.5 686 L 755.5 688 L 754.5 686 Z " /><path fill="rgb(251,252,251)" stroke="rgb(251,252,251)" stroke-width="1" opacity="0.984313725490196" d="M 589.5 688 L 590.5 690 L 589.5 688 Z " /><path fill="rgb(251,252,251)" stroke="rgb(251,252,251)" stroke-width="1" opacity="0.984313725490196" d="M 758.5 689 L 759.5 691 L 758.5 689 Z " /><path fill="rgb(251,252,251)" stroke="rgb(251,252,251)" stroke-width="1" opacity="0.984313725490196" d="M 724.5 691 L 728.5 696 L 724.5 691 Z " /><path fill="rgb(251,252,251)" stroke="rgb(251,252,251)" stroke-width="1" opacity="0.984313725490196" d="M 765.5 694 L 766.5 696 L 765.5 694 Z " /><path fill="rgb(251,252,251)" stroke="rgb(251,252,251)" stroke-width="1" opacity="0.984313725490196" d="M 771.5 698 L 772.5 700 L 771.5 698 Z " /><path fill="rgb(251,252,251)" stroke="rgb(251,252,251)" stroke-width="1" opacity="0.984313725490196" d="M 565.5 699 L 568.5 703 L 565.5 699 Z " /><path fill="rgb(251,252,251)" stroke="rgb(251,252,251)" stroke-width="1" opacity="0.984313725490196" d="M 899.5 704 L 900 746.5 L 899 746.5 L 899.5 704 Z " /><path fill="rgb(251,252,251)" stroke="rgb(251,252,251)" stroke-width="1" opacity="0.984313725490196" d="M 573.5 706 L 574.5 708 L 573.5 706 Z " /><path fill="rgb(251,252,251)" stroke="rgb(251,252,251)" stroke-width="1" opacity="0.984313725490196" d="M 875.5 712 L 876 727.5 L 875 727.5 L 875.5 712 Z " /><path fill="rgb(251,252,251)" stroke="rgb(251,252,251)" stroke-width="1" opacity="0.984313725490196" d="M 877.5 721 L 878.5 723 L 880 722.5 L 879 724.5 L 881 724.5 L 879.5 727 Q 876.2 728.1 877 725.5 L 877 723.5 L 877.5 721 Z " /><path fill="rgb(251,252,251)" stroke="rgb(251,252,251)" stroke-width="1" opacity="0.984313725490196" d="M 880.5 735 L 881.5 737 Q 878.7 737.7 880.5 735 Z " /><path fill="rgb(251,252,251)" stroke="rgb(251,252,251)" stroke-width="1" opacity="0.984313725490196" d="M 641 741 L 644 741.5 L 641.5 743 L 641 741 Z " /><path fill="rgb(251,252,251)" stroke="rgb(251,252,251)" stroke-width="1" opacity="0.984313725490196" d="M 898.5 749 L 897.5 751 L 898.5 749 Z " /><path fill="rgb(251,252,251)" stroke="rgb(251,252,251)" stroke-width="1" opacity="0.984313725490196" d="M 720.5 751 L 772 751.5 L 720.5 752 L 720.5 751 Z " /><path fill="rgb(235,241,245)" stroke="rgb(235,241,245)" stroke-width="1" opacity="0.9686274509803922" d="M 783.5 353 L 786.5 354 Q 787.8 351.7 792.5 353 L 793.5 355 Q 766.1 364.1 745.5 380 L 690.5 380 L 689.5 381 L 679.5 381 L 678.5 382 L 666.5 383 L 646.5 388 L 628.5 395 L 607.5 406 Q 585.8 419.8 569 438.5 Q 552.4 456.9 541.5 481 L 541 479.5 Q 557.7 444.7 585.5 421 Q 599.9 408.4 617.5 399 L 649.5 386 L 666.5 382 L 678.5 381 L 679.5 380 L 688.5 380 L 689.5 379 L 744.5 379 Q 764.3 364.8 789 355.5 L 684.5 355 L 683.5 356 L 674.5 356 L 673.5 357 L 662.5 358 L 641.5 363 L 617.5 372 Q 577.9 390.4 551 421.5 L 549.5 424 Q 547.3 423.3 548 425.5 Q 526.5 449 514 481.5 L 508 500.5 L 503 524.5 L 502 546.5 L 501 547.5 L 501 561.5 L 503.5 568 L 513.5 568 L 514.5 567 Q 516 569.5 521.5 568 L 526 567 L 526.5 564 L 527 568 L 521.5 569 L 503.5 569 L 501 568 L 500 562.5 L 500 543.5 L 501 542.5 L 501 530.5 L 506 503.5 L 517 471.5 Q 534.8 433.8 563.5 407 Q 582.2 389.7 605.5 377 Q 624.8 366.3 648.5 360 L 674.5 355 L 682.5 355 L 683.5 354 L 782.5 354 L 783.5 353 Z " /><path fill="rgb(235,241,245)" stroke="rgb(235,241,245)" stroke-width="1" opacity="0.9686274509803922" d="M 856.5 354 L 897.5 354 L 900 356.5 L 899.5 360 L 897.5 355 L 856.5 355 L 855.5 356 L 846.5 356 L 816.5 362 L 792.5 370 Q 744.7 390.2 713 426.5 L 704.5 437 L 677.5 440 L 651.5 449 Q 629.4 460.4 614 478.5 Q 605.3 487.8 599.5 500 L 572.5 501 L 571.5 500 L 556.5 500 L 553.5 501 L 550.5 500 L 545 514.5 L 544 524 L 615.5 524 L 616 522.5 Q 624.7 498.2 642.5 483 Q 652.9 473.9 666.5 468 L 682.5 463 L 687 463 L 687 466.5 L 677 487.5 L 672 502.5 L 668 520.5 L 667 535.5 L 666 536.5 L 666 571.5 L 673 608.5 L 679 625.5 L 681.5 628 L 708 631 L 699 609.5 L 692 583.5 L 691 571.5 L 690 570.5 L 690 534.5 L 695 509.5 L 704 484.5 Q 717.4 455.4 738.5 434 Q 765 407.5 802.5 392 L 820.5 386 L 838.5 382 L 844.5 382 L 852.5 380 L 875 379 L 874.5 381 Q 872.8 378.2 866.5 380 L 865.5 381 L 852.5 381 L 824.5 386 L 795.5 396 Q 757.2 413.7 731 443.5 Q 709.7 468.2 698 502.5 L 691 535.5 L 691 570.5 L 698 603.5 L 709 630.5 Q 707.8 633.3 702.5 632 L 701.5 631 L 692.5 631 L 681.5 629 L 678 625.5 L 672 608.5 L 667 587.5 L 666 573.5 L 665 572.5 L 665 534.5 L 671 502.5 L 677 484.5 L 686 466.5 L 686 464 Q 670.4 466 658.5 473 L 637 489.5 L 625 505.5 L 615.5 525 L 543.5 525 L 542 523.5 L 547 503.5 L 550.5 499 L 598.5 499 L 601 496.5 Q 610.8 476.8 627.5 464 L 643.5 452 L 660.5 444 L 677.5 439 L 704.5 436 L 706 434.5 L 711 427.5 L 733.5 405 Q 757 384.5 787.5 371 L 824.5 359 L 839.5 357 L 845.5 355 L 855.5 355 L 856.5 354 Z " /><path fill="rgb(235,241,245)" stroke="rgb(235,241,245)" stroke-width="1" opacity="0.9686274509803922" d="M 899.5 364 L 900 372.5 L 899 372.5 L 899.5 364 Z " /><path fill="rgb(235,241,245)" stroke="rgb(235,241,245)" stroke-width="1" opacity="0.9686274509803922" d="M 875.5 434 L 876 435.5 L 874.5 437 L 758.5 437 L 756 438 L 754.5 441 L 744 450.5 L 736 460.5 L 895.5 461 L 900 457.5 L 897.5 461 L 895.5 462 L 735 462 Q 743.2 446.7 757.5 436 L 874.5 436 L 875.5 434 Z " /><path fill="rgb(235,241,245)" stroke="rgb(235,241,245)" stroke-width="1" opacity="0.9686274509803922" d="M 540.5 482 L 541 483.5 L 538.5 488 L 538 486.5 L 540.5 482 Z " /><path fill="rgb(235,241,245)" stroke="rgb(235,241,245)" stroke-width="1" opacity="0.9686274509803922" d="M 536.5 492 L 537 493.5 L 533.5 503 L 533 500.5 L 536.5 492 Z " /><path fill="rgb(235,241,245)" stroke="rgb(235,241,245)" stroke-width="1" opacity="0.9686274509803922" d="M 532.5 504 L 533 506.5 L 531.5 510 L 531 507.5 L 532.5 504 Z " /><path fill="rgb(235,241,245)" stroke="rgb(235,241,245)" stroke-width="1" opacity="0.9686274509803922" d="M 530.5 511 L 531 514.5 L 529.5 519 L 529 515.5 L 530.5 511 Z " /><path fill="rgb(235,241,245)" stroke="rgb(235,241,245)" stroke-width="1" opacity="0.9686274509803922" d="M 528.5 521 L 529 524.5 L 528 524.5 L 528.5 521 Z " /><path fill="rgb(235,241,245)" stroke="rgb(235,241,245)" stroke-width="1" opacity="0.9686274509803922" d="M 527.5 526 L 528 531.5 L 527 531.5 L 527.5 526 Z " /><path fill="rgb(235,241,245)" stroke="rgb(235,241,245)" stroke-width="1" opacity="0.9686274509803922" d="M 526.5 533 L 527 544.5 L 526 544.5 L 526.5 533 Z " /><path fill="rgb(235,241,245)" stroke="rgb(235,241,245)" stroke-width="1" opacity="0.9686274509803922" d="M 525.5 547 L 526 561.5 L 525 561.5 L 525.5 547 Z " /><path fill="rgb(235,241,245)" stroke="rgb(235,241,245)" stroke-width="1" opacity="0.9686274509803922" d="M 505.5 581 L 524.5 581 L 525.5 582 L 611.5 582 L 614.5 581 L 617 583.5 L 628 605.5 L 641.5 621 Q 654.8 632.7 672.5 640 L 691.5 644 L 894.5 644 L 900 647.5 L 899.5 650 L 897.5 646 L 894.5 645 L 838.5 645 L 837.5 646 L 775.5 646 Q 774.3 643.8 769.5 645 L 766.5 646 L 765.5 645 L 691.5 645 L 690.5 644 L 678.5 643 Q 650.2 633.8 633 613.5 Q 621.5 600.8 616 583 L 504.5 583 Q 503.4 583.1 504 588.5 L 507 599.5 L 505 598.5 L 502 582 L 505.5 581 Z " /><path fill="rgb(235,241,245)" stroke="rgb(235,241,245)" stroke-width="1" opacity="0.9686274509803922" d="M 506.5 601 L 508 602.5 L 509 609.5 L 516 629.5 L 530 656.5 L 528 655.5 Q 518 639 511 619.5 L 506.5 601 Z " /><path fill="rgb(235,241,245)" stroke="rgb(235,241,245)" stroke-width="1" opacity="0.9686274509803922" d="M 536.5 606 L 598 606.5 L 536.5 607 L 535 608.5 L 537 614.5 L 536 614.5 L 534 607 L 536.5 606 Z " /><path fill="rgb(235,241,245)" stroke="rgb(235,241,245)" stroke-width="1" opacity="0.9686274509803922" d="M 599.5 607 L 608 620.5 L 613 625.5 L 614 629 L 616 629 L 616 631 L 618 631 Q 616.9 633.7 619.5 633 L 624.5 639 L 638.5 650 L 654.5 659 L 677.5 667 L 694.5 670 L 701.5 670 L 704.5 669 Q 714.9 684.1 728.5 696 L 749.5 713 L 797.5 713 L 797.5 712 Q 779.4 705.6 766 694.5 L 768.5 696 L 789.5 708 L 801 712.5 L 799.5 714 L 749.5 714 Q 728.7 699.3 712 680.5 L 703.5 670 L 694.5 671 L 673.5 667 L 648.5 657 Q 627.5 646 613 628.5 L 601 611.5 L 599.5 607 Z " /><path fill="rgb(235,241,245)" stroke="rgb(235,241,245)" stroke-width="1" opacity="0.9686274509803922" d="M 537.5 616 L 541 623.5 L 540 623.5 L 537.5 616 Z " /><path fill="rgb(235,241,245)" stroke="rgb(235,241,245)" stroke-width="1" opacity="0.9686274509803922" d="M 542.5 627 L 546 633.5 L 544 632.5 L 542.5 627 Z " /><path fill="rgb(235,241,245)" stroke="rgb(235,241,245)" stroke-width="1" opacity="0.9686274509803922" d="M 546.5 635 Q 562.1 664.4 586.5 685 L 604.5 699 L 626.5 711 L 654.5 721 L 673.5 725 L 690.5 726 L 691.5 727 L 873.5 727 L 875 726.5 L 874.5 728 L 691.5 728 L 690.5 727 L 680.5 727 L 679.5 726 L 662.5 724 L 641.5 718 L 626.5 712 L 598.5 696 L 577.5 677 L 576 677 L 574.5 674 Q 572.3 674.8 573 672.5 Q 555.8 656.7 546.5 635 Z " /><path fill="rgb(235,241,245)" stroke="rgb(235,241,245)" stroke-width="1" opacity="0.9686274509803922" d="M 530.5 658 L 546 680 Q 548.7 678.9 548 681.5 L 550 685 Q 552.7 683.9 552 686.5 Q 573.1 710.4 602 726.5 L 600.5 726 Q 570.3 709.7 549 684.5 L 533 663.5 L 530.5 658 Z " /><path fill="rgb(235,241,245)" stroke="rgb(235,241,245)" stroke-width="1" opacity="0.9686274509803922" d="M 745.5 669 L 750.5 670 L 798.5 670 L 800.5 670 L 874.5 670 L 876 671.5 L 875.5 685 L 875 671 L 740.5 671 L 740 672.5 L 752 683.5 L 747.5 680 L 744.5 678 L 739 672.5 L 739 670 L 745.5 669 Z " /><path fill="rgb(235,241,245)" stroke="rgb(235,241,245)" stroke-width="1" opacity="0.9686274509803922" d="M 753.5 684 L 765 693.5 L 763.5 693 L 753 686 L 753.5 684 Z " /><path fill="rgb(235,241,245)" stroke="rgb(235,241,245)" stroke-width="1" opacity="0.9686274509803922" d="M 603.5 727 L 625.5 738 L 628.5 738 L 650.5 746 L 670.5 750 L 678.5 750 L 688.5 752 L 894.5 752 L 899 749.5 L 899.5 747 L 900 749.5 L 894.5 753 L 688.5 753 L 687.5 752 L 670.5 751 L 650.5 747 L 618.5 736 L 604.5 729 L 603.5 727 Z " /><path fill="rgb(253,254,253)" stroke="rgb(253,254,253)" stroke-width="1" opacity="0.996078431372549" d="M 686.5 355 L 786.5 355 L 787 357 Q 762.6 364.3 744.5 379 L 685.5 379 L 684.5 380 L 670.5 381 L 665.5 383 L 659.5 383 L 637.5 390 L 605.5 406 Q 582.5 421 565 441.5 L 547 467.5 L 536 490.5 L 536 493.5 L 534 495.5 L 533 503.5 L 529 514.5 L 528 524.5 L 526 527.5 L 525 562.5 L 526 567 L 502 567 L 502 533.5 L 503 532.5 L 503 525.5 L 506 513.5 L 506 508.5 L 517 474.5 L 532 446.5 Q 543.2 429.2 557.5 415 Q 559.8 415.8 559 413.5 Q 573.8 397.8 592.5 386 L 618.5 372 L 622 372 Q 620.8 369 624.5 370 L 627.5 368 L 653.5 360 L 675.5 356 L 685.5 356 L 686.5 355 Z " /><path fill="rgb(253,254,253)" stroke="rgb(253,254,253)" stroke-width="1" opacity="0.996078431372549" d="M 859.5 355 L 896.5 355 L 899 357.5 L 899 429.5 Q 901.5 431 900 436.5 L 899 437.5 L 899 448.5 L 900 452.5 L 899 455.5 L 900 456.5 L 895.5 461 L 736 460.5 L 744 450 L 747 448.5 L 752.5 442 L 756 439.5 Q 755.3 437.3 757.5 438 L 758.5 437 L 874 437 L 874.5 439 L 876 436.5 L 876 379 L 851.5 380 L 837.5 383 L 831.5 383 L 799.5 393 L 773.5 406 Q 751.8 419.3 735 437.5 L 733 440.5 L 719 457.5 Q 708.1 474.1 700 493.5 L 694 512.5 L 691 527.5 L 689 555.5 L 690 556.5 L 690 571.5 L 695 597.5 L 701 612.5 L 701 615.5 L 708 628.5 L 708 631 L 686.5 629 L 679 625.5 L 672 604.5 L 672 600.5 L 668 586.5 L 668 579.5 L 666 571.5 L 666 536.5 L 672 502.5 L 681 477.5 L 687 466.5 L 687 463 L 674.5 465 L 657.5 472 Q 642.9 480.9 632 493.5 Q 621 506.3 616 524 L 544.5 524 Q 543.5 524 544 519.5 L 550 500 L 556.5 501 L 558.5 500 L 559.5 501 L 586.5 501 Q 587.8 498.7 592.5 500 L 594.5 500 Q 599.8 501.3 601 498.5 Q 609.8 480.3 624.5 468 Q 638.6 454.1 658.5 446 L 678.5 440 L 689.5 438 L 698.5 438 L 699.5 437 L 703.5 438 L 708 432 Q 710.7 433.1 710 430.5 L 729.5 410 L 756.5 389 L 787.5 372 L 824.5 360 L 829.5 360 L 847.5 356 L 858.5 356 L 859.5 355 Z M 878 368 L 879 370 Q 880 367 878 368 Z M 884 440 L 884 442 L 886 441 L 884 440 Z M 881 442 L 880 445 L 881 445 L 881 442 Z M 879 443 L 878 446 L 879 446 L 879 443 Z M 882 447 L 880 449 L 883 449 L 882 447 Z M 679 558 L 676 561 L 679 562 L 680 560 Q 681 557 679 558 Z " /><path fill="rgb(253,254,253)" stroke="rgb(253,254,253)" stroke-width="1" opacity="0.996078431372549" d="M 504 583 L 615.5 583 L 616 584.5 Q 621.3 600.7 632 611.5 L 631.5 613 Q 650.9 635.1 683.5 644 L 701.5 645 L 702.5 646 L 871.5 646 L 872.5 645 L 886.5 645 L 887.5 646 L 898 646 L 899 648.5 L 899 700.5 L 900 703.5 L 899 704.5 L 899 748.5 L 896.5 751 L 893.5 752 L 778.5 752 L 776.5 752 L 771.5 751 L 720.5 751 L 719.5 752 L 690.5 752 L 689.5 751 L 679.5 751 L 678.5 750 L 664.5 749 L 642 742.5 L 644 741.5 L 641.5 741 L 638.5 742 L 633 740 L 632.5 738 L 629.5 739 L 606.5 729 L 592 719.5 L 591.5 718 L 589.5 718 Q 572.9 708.1 560 694.5 L 556 689.5 Q 535.7 669.3 522 642.5 L 510 612.5 L 508 601.5 L 506 597.5 L 506 592.5 L 504 588.5 L 504 583 Z M 533 592 Q 529 595 521 594 L 519 596 L 522 600 L 522 604 L 522 605 L 523 605 L 523 609 L 526 609 L 525 608 L 530 605 L 528 604 Q 529 600 533 601 L 534 598 L 530 599 L 528 596 L 532 594 L 533 595 L 533 592 Z M 533 596 L 534 597 L 535 598 Q 536 595 533 596 Z M 536 606 L 534 608 L 536 616 L 547 639 L 563 663 L 571 671 Q 570 673 573 672 L 573 674 L 575 674 L 578 678 L 583 682 L 586 687 L 620 709 L 648 720 L 673 726 L 689 727 L 690 728 L 876 728 L 876 713 L 875 712 L 876 711 L 876 670 L 874 669 L 741 669 L 738 671 L 739 673 Q 762 698 798 712 L 798 713 L 750 713 L 739 705 Q 740 702 737 703 L 733 698 L 724 691 L 721 687 L 718 686 Q 719 683 717 684 L 717 683 L 716 682 L 706 671 L 705 669 L 688 669 L 672 665 L 670 663 L 669 663 L 666 663 L 657 659 L 655 659 Q 638 651 625 639 Q 611 626 602 610 L 599 606 L 536 606 Z M 721 656 L 721 659 L 717 660 L 720 667 Q 722 666 721 662 L 724 663 L 723 665 Q 726 666 722 668 L 722 669 L 726 669 L 728 665 L 730 666 Q 729 661 732 660 L 731 658 L 723 658 L 723 657 L 721 656 Z M 876 656 L 874 658 L 874 660 L 880 660 Q 881 656 876 658 L 876 656 Z M 884 657 L 882 660 L 883 662 L 883 660 Q 886 659 885 663 L 884 665 Q 889 663 887 669 L 887 671 Q 886 674 890 673 Q 892 672 890 671 L 891 666 L 888 665 L 889 660 L 884 657 Z M 712 658 L 711 661 L 712 661 L 712 658 Z M 714 658 Q 713 662 716 661 Q 717 657 714 658 Z M 735 658 L 733 660 L 735 660 L 735 658 Z M 727 668 Q 726 672 729 671 Q 730 667 727 668 Z M 889 678 L 888 681 L 889 681 L 889 678 Z M 878 721 L 877 724 L 877 726 Q 876 728 880 727 L 881 725 L 880 725 L 878 721 Z M 881 735 Q 879 738 882 737 L 881 735 Z " /><path fill="rgb(219,224,230)" stroke="rgb(219,224,230)" stroke-width="1" opacity="0.38823529411764707" d="M 688.5 351 L 744.5 352 L 746.5 351 Q 747.7 353.2 752.5 352 Q 753.7 349.8 758.5 351 L 761.5 352 L 766.5 351 L 768.5 351 L 795.5 351 L 797 352.5 L 796 357 L 780.5 362 Q 761.5 370.5 745.5 382 L 687.5 382 L 686.5 383 L 672.5 384 L 666.5 386 L 660.5 386 L 657.5 388 L 641.5 392 Q 600.7 407.2 574 436.5 Q 551.7 459.7 539 492.5 L 531 520.5 L 531 526.5 L 529 534.5 L 529 546.5 L 528 547.5 L 528 560.5 L 529 561.5 L 529 570 L 500.5 570 L 499 568.5 L 499 528.5 L 500 527.5 L 500 519.5 L 502 517.5 Q 500.8 510.8 504 508.5 L 504 506.5 L 505 497 Q 509 498.4 507 491.5 L 510 486.5 L 510 482 Q 513 483.3 512 479.5 L 513 474 Q 516.3 475.3 515 470.5 L 525 453.5 L 526 449 Q 528.7 450.1 528 447.5 L 534 439.5 L 534 437 Q 536.7 438.1 536 435.5 Q 539.8 434.2 539 430 Q 541.7 431.1 541 428.5 L 544 424 Q 546.7 425.1 546 422.5 L 550 417 Q 552.7 418.1 552 415.5 L 555 414 Q 553.9 411.3 556.5 412 L 558 409 L 560 409 Q 558.9 406.3 561.5 407 L 563 404 L 570 400 Q 568.9 397.3 571.5 398 L 576 394.5 Q 575.3 392.3 577.5 393 L 583 390 Q 581.9 387.3 584.5 388 L 620.5 367 L 626.5 366 L 643.5 359 L 648.5 359 L 654.5 356 L 661.5 356 L 674.5 353 L 683.5 353 L 688.5 351 Z M 784 353 L 783 354 L 684 354 L 683 355 L 675 355 L 649 360 Q 625 366 606 377 Q 582 390 564 407 Q 535 434 517 472 L 506 504 L 501 531 L 501 543 L 500 544 L 500 563 L 501 568 L 504 569 L 522 569 L 527 568 L 526 564 L 526 546 L 527 545 L 528 526 L 531 511 L 538 489 Q 550 460 569 439 Q 586 420 608 406 L 629 395 L 647 388 L 667 383 L 679 382 L 680 381 L 690 381 L 691 380 L 746 380 Q 766 364 794 355 L 793 353 Q 788 352 787 354 L 784 353 Z " /><path fill="rgb(219,224,230)" stroke="rgb(219,224,230)" stroke-width="1" opacity="0.38823529411764707" d="M 867.5 351 L 895.5 351 Q 896.6 353.8 900 353 L 899.5 356 L 897.5 354 L 856.5 354 L 855.5 355 L 845.5 355 L 812.5 362 L 787.5 371 L 771.5 379 Q 736.1 398.1 711 427.5 L 704.5 436 L 677.5 439 L 653.5 447 Q 627.9 459.4 611 480.5 L 598.5 499 L 550.5 499 L 548 501.5 L 542 523.5 L 543.5 525 L 615.5 525 L 625 505.5 L 639.5 487 Q 650.2 476.7 664.5 470 L 686 464 L 686 466.5 L 677 484.5 L 671 502.5 L 667 520.5 L 666 533.5 L 665 534.5 L 665 572.5 L 666 573.5 L 667 587.5 L 672 608.5 L 678 625.5 L 681.5 629 L 707.5 632 L 709 628.5 L 700 609.5 L 693 583.5 L 692 571.5 L 691 570.5 L 691 535.5 L 698 502.5 L 710 474.5 Q 724.8 446.8 747.5 427 Q 770.9 405.9 802.5 393 L 820.5 387 L 838.5 383 L 844.5 383 L 852.5 381 L 873.5 380 L 875 381.5 L 875 436 L 757.5 436 L 741 452.5 L 735 462 L 895.5 462 L 899.5 459 L 900 462 L 896.5 464 L 733 464 Q 732 458.8 735 456.5 L 755.5 435 L 757.5 434 L 872 434 L 872 425.5 L 873 424.5 L 873 382 L 844.5 384 Q 840.9 386.9 833.5 386 L 830.5 388 L 828.5 388 L 805.5 394 L 773 410 Q 774.3 413 770.5 412 L 755 423 Q 756.1 425.7 753.5 425 L 747 430.5 Q 747.8 432.8 745.5 432 L 734 443.5 L 734 445 Q 731.3 443.9 732 446.5 L 731 449 Q 728.3 447.9 729 450.5 L 714 471.5 L 703 494.5 L 702 501.5 L 699 505.5 L 699 507.5 Q 696.1 512.1 697 520.5 L 695 523.5 L 693 534.5 L 694 538.5 L 693 539.5 L 693 551.5 L 692 552.5 L 693 553.5 Q 691.4 563.6 694 569.5 L 693 571.5 L 694 572.5 L 695 583.5 L 697 586.5 L 698 596.5 Q 700.8 598.2 700 603.5 L 702 605.5 L 702 607.5 L 705 613.5 L 706 619.5 L 710 625.5 L 711 633 L 686.5 632 L 679.5 630 L 676 626.5 L 676 623.5 L 673 618.5 L 671 608.5 L 668 602.5 L 668 597.5 L 665 587.5 L 665 580.5 L 663 571.5 L 663 535.5 L 664 534.5 L 665 518.5 L 668 509.5 L 668 504.5 L 674 489.5 L 674 487.5 L 676 480.5 L 683 467.5 L 679.5 467 Q 653.7 474.2 638 491.5 L 625 509.5 L 617.5 527 L 541.5 527 L 541 525.5 L 539 522.5 L 542 517.5 L 542 511.5 L 544 509.5 L 544 505.5 L 546 503.5 L 547 498 L 588.5 498 Q 590 495.5 595.5 497 Q 597.3 499.8 599 495.5 L 615 472 L 633 458 Q 631.9 455.3 634.5 456 L 656.5 443 L 659.5 443 L 665.5 440 L 669.5 440 L 672.5 438 L 681.5 437 L 684.5 435 Q 697.6 436.6 705 432.5 L 720 414 L 721.5 414 L 738.5 398 L 756.5 385 L 779.5 372 Q 786.7 371.2 790.5 367 L 796.5 366 L 798.5 364 L 800.5 364 L 811.5 361 L 813.5 359 L 819.5 359 L 826.5 356 Q 834.5 357 838.5 354 L 840.5 354 L 861.5 353 L 867.5 351 Z " /><path fill="rgb(219,224,230)" stroke="rgb(219,224,230)" stroke-width="1" opacity="0.38823529411764707" d="M 500 580 L 616.5 580 L 619 582.5 L 625 597.5 L 637.5 614 Q 639.8 613.3 639 615.5 L 658.5 631 L 675.5 639 L 686.5 640 L 690.5 642 L 708.5 642 L 713.5 643 L 714.5 642 L 894.5 642 L 900 644.5 L 899.5 647 L 894.5 644 L 691.5 644 Q 654.9 637.6 635 614.5 L 624 599.5 L 617 583.5 L 614.5 581 L 611.5 582 L 525.5 582 L 524.5 581 L 505.5 581 L 502 582 L 511 619.5 L 525 650.5 Q 543 682 569.5 705 Q 593.8 725.8 625.5 739 L 658.5 749 L 688 752.5 L 670.5 753 L 668.5 753 L 663.5 751 L 645.5 748 L 615.5 737 L 587.5 721 L 568 707 L 566.5 704 L 563 703 L 556.5 695 Q 554.3 695.8 555 693.5 L 548.5 686 Q 546.3 686.8 547 684.5 L 546 682 Q 543.3 683.1 544 680.5 L 540.5 676 L 539 676 Q 540.5 672.2 537.5 673 L 533 665 L 531 665 L 531 662 Q 528.3 663.1 529 660.5 Q 525.3 657.4 525 652 Q 522 653.3 523 649.5 L 515 635.5 L 515 632 Q 511.3 633.4 513 627.5 Q 508.9 625.2 510 619 Q 506.7 620.3 508 615.5 L 507 610.5 L 505 608.5 L 505 602.5 L 502 596.5 L 502 589.5 Q 498.6 586.7 500 580 Z " /><path fill="rgb(219,224,230)" stroke="rgb(219,224,230)" stroke-width="1" opacity="0.38823529411764707" d="M 536.5 607 L 598.5 607 L 600 608.5 Q 609.7 627.8 625.5 641 Q 640 654 659.5 662 L 677.5 668 L 694.5 671 L 701.5 671 L 703.5 670 L 730.5 699 L 749.5 714 L 799.5 714 L 800.5 712 Q 764.3 698.2 740 672.5 L 740.5 671 L 875 671 L 875 725.5 L 873.5 727 L 691.5 727 L 690.5 726 L 681.5 726 L 680.5 725 L 667.5 724 L 633.5 714 L 604.5 699 Q 584.1 684.9 568 666.5 Q 546.5 642.5 535 608.5 L 536.5 607 Z M 538 609 Q 548 641 568 664 Q 587 686 614 702 L 642 715 L 658 719 L 660 719 L 663 721 Q 669 720 673 723 L 699 724 L 700 725 L 872 725 L 872 719 L 873 718 L 872 716 L 873 714 L 873 672 L 868 673 L 801 673 L 800 672 Q 794 671 793 673 L 770 673 Q 768 671 763 672 L 761 672 L 743 673 L 754 682 Q 756 681 755 684 L 759 686 Q 761 685 760 688 L 771 695 Q 774 694 773 697 L 776 697 L 785 703 Q 788 702 787 705 L 802 710 Q 804 711 803 715 L 802 716 L 782 716 L 780 716 L 749 716 L 727 698 L 706 676 L 703 672 L 687 672 Q 681 669 673 669 L 652 661 L 631 648 L 615 634 Q 616 631 613 632 L 607 624 Q 608 621 605 622 L 598 609 L 550 609 L 549 610 L 538 609 Z " /><path fill="rgb(219,224,230)" stroke="rgb(219,224,230)" stroke-width="1" opacity="0.38823529411764707" d="M 899.5 750 L 900 753 L 895 752.5 L 899.5 750 Z " /></svg>