<svg xmlns="http://www.w3.org/2000/svg" width="32" height="32">
    <path style="stroke:none;fill-rule:nonzero;fill:#000;fill-opacity:1" d="M16.004 0A16.005 16.005 0 0 0 .855 10.836 15.997 15.997 0 0 0 24.84 29.332l2.641 2.629h4.188l.332-.336v-4.2l-2.668-2.64A15.903 15.903 0 0 0 32 16c0-8.836-7.164-16-15.996-16m0 5.602c3.613 0 6.965 1.878 8.855 4.96a10.405 10.405 0 0 1 .41 10.145l-7-7.016a3.211 3.211 0 0 0-4.535 0 3.211 3.211 0 0 0 0 4.536l7.028 7.011A10.317 10.317 0 0 1 16 26.398c-5.742 0-10.398-4.656-10.398-10.398S10.258 5.602 16 5.602Zm0 0"/>
</svg>
